<svg width="150" height="19" fill="none" xmlns="http://www.w3.org/2000/svg"><path d="M1.994 1.467H.664C.498.313.581.066 4.487.066h5.485c7.811 0 11.136 3.46 11.136 9.228 0 5.52-3.158 9.228-10.887 9.228H.083a2.332 2.332 0 010-1.071c2.908-.165 3.407-.33 3.407-2.142V2.62c0-.989-.333-1.153-1.496-1.153zm15.54 8.321c0-5.108-2.66-8.157-7.895-8.157H6.814v13.43c0 1.648.582 1.895 3.075 1.895 4.653.083 7.645-1.4 7.645-7.168zM34.155.231c.083.577.249 1.071.664 1.977l6.233 14.09c.333.659.582.906 1.995.906h.581c.166.741 0 1.236-.664 1.236h-8.726c-.083-.247-.083-.66 0-1.071 2.908-.083 3.24-.33 2.908-.99l-1.662-4.036h-6.98l-1.08 2.883c-.582 1.566-.582 1.978.83 1.978h2.327c.166.741 0 1.236-.665 1.236h-7.728c-.083-.247-.083-.66 0-1.071 2.078-.248 2.327-.412 3.075-2.143L30.58 2.703C31.495.643 31.828.23 33.074.23h1.08zm.664 10.711l-2.908-6.921-2.826 6.921h5.734zM54.35.56c.082.248.082.742 0 1.072-2.328.165-2.66.659-2.66 1.813v12.688c0 .906.25 1.154 1.413 1.154h1.495c.167.741.084 1.235-.664 1.235h-8.227c-.084-.247-.084-.659 0-1.07 2.16-.33 2.659-.578 2.659-1.73V2.95c0-.989-.25-1.153-1.496-1.153h-1.33c-.166-.66 0-1.236 1.164-1.236h7.645zm31.08 0c.083.33.083.66 0 1.072-2.493.165-2.66.577-2.576 1.4l1.33 13.101c.083.824.498.906 2.576 1.236.083.741 0 1.236-.748 1.236h-9.557c-.083-.33-.083-.66 0-1.071l1.496-.083c2.244-.165 2.66-.412 2.493-1.73L79.197 3.94l-6.482 13.51c-.498.989-.664 1.154-1.33 1.154L63.907 4.02l-.83 12.03c-.084 1.07-.084 1.318 2.742 1.318h1.496c.166.741.083 1.236-.665 1.236h-8.892c-.083-.33-.083-.66 0-1.071 2.992-.165 3.241-.66 3.324-1.813l1.08-12.606c.084-.824-.083-1.154-2.742-1.236-.166-.577 0-1.236 1.163-1.236h5.485l6.815 12.853L79.114.643h6.316V.561zm14.874 0c.083.248.083.742 0 1.072-2.826.165-3.407.412-3.407 2.142V15.64c0 .906.498 1.153 1.246 1.153h1.746c1.994 0 2.243-.165 3.406-2.554l.748-1.648c.749 0 1.164.33.915 1.154-.582 1.565-1.081 3.13-1.413 4.778H90.332c-.083-.33-.083-.659 0-1.07 2.659-.166 3.24-.495 3.24-2.225V2.95c0-.989-.332-1.153-1.495-1.153h-1.33c-.166-.66 0-1.236 1.164-1.236h8.393zm21.94 0c.083 1.237.25 2.472.416 3.626.166.824-.166 1.318-1.08 1.236l-.25-1.236c-.498-1.648-.997-2.06-2.492-2.06h-4.322v6.839h2.826c.831 0 .997-.247 1.08-.989l.166-1.4h.333c.498 0 .831.164.747.988a55.86 55.86 0 000 5.273c-.249.082-.664.165-.913 0-.333-2.06-.665-2.307-1.413-2.307h-2.826v4.697c0 .988.249 1.4 2.077 1.4h2.328c1.994 0 2.243-.165 3.406-2.554l.749-1.648c.748 0 1.163.33.914 1.154-.582 1.565-1.081 3.13-1.413 4.779h-14.875c-.083-.33-.083-.66 0-1.072 2.825-.164 3.407-.33 3.407-2.142V2.785c0-.988-.25-1.153-1.496-1.153h-1.33c-.083-.66 0-1.236 1.164-1.236h12.797V.56zm6.648 1.237h-1.329c-.166-.66 0-1.236 1.08-1.319 1.33-.082 2.909-.082 6.732-.082 5.152 0 8.061 2.472 8.061 6.097 0 2.225-1.413 4.037-3.657 5.026 0 0 1.995 1.813 3.075 2.636 3.573 2.802 4.737 3.049 7.064 3.049.249.906-.416 1.648-3.325 1.648-2.492 0-4.154-.577-6.149-2.225-.914-.741-1.828-1.812-2.576-3.048-.665-1.236-.748-1.319-2.41-1.319h-1.662v3.955c0 .742.249 1.071 1.662 1.071h1.413c.083.742 0 1.236-.748 1.236h-8.477c-.083-.33-.083-.659 0-1.07 2.327-.166 2.909-.413 2.909-2.06V3.031c-.166-1.07-.498-1.235-1.663-1.235zm6.15 8.98c2.66 0 4.82-.412 4.82-4.037s-2.16-4.779-5.236-4.779h-.83v8.816h1.246z" fill="#1D1D1B"/></svg>