<svg width="138" height="53" fill="none" xmlns="http://www.w3.org/2000/svg"><path d="M22.174 9.864c-.466-.392-.933-.392-1.477.078-2.564.94-7.383 4.228-8.55 3.993C14.092 11.273 16.19 8.69 18.6 6.34c1.01-1.41-.311-1.722-.466-2.505-.311-1.018-.156-2.114.155-3.053.466-.783-.466-.94-1.01-.627C10.982 6.732 5.618 13.308.645 19.963c-.777 1.017-.622 1.8-.078 2.427l2.643 3.366c.544.94 1.399 1.096 2.487.392l8.316-5.637c-3.342 5.48-6.528 11.665-8.938 19.18-1.088 3.21 1.943 8.063 6.062 13.152.467.548 1.4 0 .778-1.096-3.964-7.437-.7-18.945 12.047-35.933.621-.705.855-1.41.388-2.114l-2.176-3.836zm32.798 9.786l1.088-4.228c.233-.627.7-.94 1.321-1.018H62.2l.622-1.957H61.19l-5.13.078c-1.088-.078-1.943.313-2.487 1.566l-2.798 10.96-1.088 4.306c-.311.94-.078 1.722 1.088 2.035.078 0 .233.078.31.078h6.53l.543-1.957h-4.974c-.388-.313-.7-.313-.544-1.252l1.166-4.62c.156-.547.466-.939 1.01-.939h3.809l.544-1.644h-3.886c-.467-.313-.544-.783-.311-1.409zm7.694 8.612c2.565-10.1 1.01-4.071 3.342-12.84.233-.626.7-.939 1.321-1.017h4.741l.467-1.566.155-.47H65.93c-1.088-.078-2.02.313-2.487 1.566l-2.331 9.16-1.555 6.028c-.31 1.096-.078 1.878 1.4 2.113h6.527l.545-1.957h-4.974c-.234 0-.544-.078-.389-1.017zM37.64 22.311l-3.73-3.288c-.777-.94 0-4.462 1.632-4.54h5.518l.467-1.88H34.53c-2.175.392-3.963 4.933-3.108 7.125l3.808 3.444c.544.627.622 1.175.622 1.801l-1.088 3.758c-.233.94-.855.94-1.632.94h-5.13l-.466 1.8h7.539c1.166-.078 1.865-.783 2.02-1.957l1.244-4.776c.311-1.096-.078-1.879-.7-2.427zm12.59-.548l.545-2.27 1.165-4.776c.156-1.252-.233-1.957-1.165-2.113-.156-.079-.311-.079-.467-.079h-7.383l-3.187 11.978-1.865 6.968h2.565l4.585-16.989h3.031c.622.157 1.01.47 1.01 1.097l-1.243 5.166c-.155.862-.7 1.41-1.632 1.723l-2.332.47-.388 1.8 5.052-.94c.855-.234 1.554-.86 1.71-2.035zm26.893-9.238h-3.031l-1.555 5.715-1.71 6.341-1.865 6.89h3.031l.544-2.114 4.586-16.832zm26.891 0h-2.953l-5.208 18.946h3.032l3.264-11.9 1.865-7.046zm13.29 11.118c.156-.548.467-.94 1.011-.94h3.808l.544-1.644h-3.964c-.466-.313-.544-.783-.311-1.409l1.166-4.227c.234-.627.699-.94 1.321-1.018h4.82l.387-1.253.233-.783h-6.683c-1.088-.078-2.021.313-2.487 1.566l-2.799 10.96-1.087 4.306c-.311.94-.078 1.722 1.087 2.035.078 0 .234.079.311.079h6.529l.544-1.957h-5.052c-.388-.314-.699-.314-.544-1.253l1.166-4.462zm19.121-11.118h-8.939l-1.476 5.324-1.71 6.341-1.943 7.202h9.094c1.32-.078 2.098-.782 2.409-2.113l4.042-15.11c.155-.94-.389-1.565-1.477-1.644zm-1.788 3.445l-3.342 11.743c-.077.94-.699 1.566-1.943 1.644h-3.186c-.078 0-.156 0-.233-.078-.311-.157-.311-.548-.156-.94l.156-.548 3.963-13.543h3.886c1.01.078 1.166.704.855 1.722zm-30.002 12.056l9.56-12.29.699-.94c.856-1.253.545-2.192-.699-2.192h-8.782l-.078 1.722h5.363c.699 0 1.088.313.622.94L102.148 27.4l-1.554 2.035c-.622.94-.388 1.645.7 2.114h9.481l.545-2.114h-6.529c-.622-.156-.7-.939-.156-1.409zM82.408 12.604l-9.871 18.632-.156.313h2.332l7.772-14.874.7.078.388 4.149c.311 1.018-.388.94-.621.94h-2.177l-.388 1.565 2.565.078c.466.079.7.314.621.783l.467 7.046h2.642l-1.088-18.789-3.186.079zm8.316 15.422l4.197-15.5H91.89L87.382 29.2c-.078.94.31 1.957 1.554 2.27h5.984l.622-2.035-4.274-.078c-.544-.078-.777-.548-.544-1.33z" fill="#1D1D1B"/></svg>