<svg width="150" height="21" fill="none" xmlns="http://www.w3.org/2000/svg"><path d="M55.106 19.942H51.37V6.723h-4.879V3.55h13.492v3.173h-4.878v13.22zM75 3.55h-3.81v16.392H75V3.55zm66.774 13.144h6.555v3.248h-10.367V3.55h3.812v13.144zm-50.537.076H93.6c3.125 0 5.26-1.964 5.26-5.061 0-2.946-2.135-4.91-5.184-4.91h-2.44v9.97zM87.578 3.55h6.098c4.498 0 8.994 2.342 8.994 8.159 0 5.439-4.42 8.233-8.766 8.233h-6.326V3.55zm28.965 10.274l2.516-6.421 2.439 6.42h-4.955zm7.242 6.118h4.192l-6.86-16.392h-3.888l-6.86 16.392h4.04l1.22-3.248h7.012l1.144 3.248zM16.334 1.163l-4.85 4.808 4.851 4.807 4.85-4.808-4.85-4.807z" fill="#282828"/><path d="M16.323 10.762l-4.851 4.808 4.85 4.807 4.852-4.807-4.851-4.808zM6.65 1.151L1.8 5.958l4.85 4.808 4.85-4.808-4.85-4.807zm19.37.024l-4.85 4.808 4.852 4.807 4.85-4.808-4.852-4.807z" fill="#282828"/></svg>