<svg width="72" height="53" fill="none" xmlns="http://www.w3.org/2000/svg"><path d="M13.587 29.501v-.319c0-.064.064-.064.064-.128v-.383l-.064-.064v-.064c0-.127.064-.255.064-.447v-.191h.063c.064 0 .064-.064.064-.064 0-.064 0-.064.064-.128v-.064h-.064v-.063c0-.064 0-.064.064-.064l.064-.064v-.192l.064-.064v-.127c0-.064-.064 0-.064-.064v-.256c0-.063 0-.063.064-.127v-.575l.064-.064v-.255s0-.064.064-.064v-.511c0-.064 0-.128.063-.191 0-.064 0-.064.064-.128 0 0 0-.064.064-.064 0 0-.064 0-.064-.064l.064-.064v-.255l.064-.064v-.575h.064v-1.213h.064v-.128s0-.064.064-.064v-.319l.063-.064v-.255l.128-.128v-.319c0-.064.064-.064.064-.064v-.447l.064-.064c0-.064.064-.064.064-.064h.127l.064-.064v-.638c0-.064.064-.064.064-.064v-1.022l.064-.064v-.255s.064 0 .064-.064v-.128c0-.063.064-.127.128-.191.063-.064.063-.128.127-.192s.064-.127.128-.255v-.128c0-.064 0-.064.064-.127 0-.064.064-.128.064-.192v-.255c0-.064.064-.064.064-.128v-.064l.063-.064c.064 0 .064-.064.064-.064 0-.064 0-.127.064-.191h.064v-.128c0-.064-.064-.064-.064-.128v-.255c0-.064.064-.064.064-.128v-.191s0-.064.064-.064l.064-.064v-.319c0-.064.064-.064.064-.128 0 0 .063-.128 0-.128v-.127c0-.064 0 0 .063 0 .064 0 0 0 0 0v-.192c0-.064.064-.128.064-.128v-.191c0-.064 0-.064.064-.128 0-.064 0-.064.064-.064s.064-.064.064-.128v-.255l.064-.064v-.128s0-.064.063-.064v-.063h.064v-.128l.064-.064v-.511s0-.064.064-.064v-.064c0-.063 0-.063.064-.127v-.064h.064v-.128h.064v-.383l.064-.064v-.127s0-.064.063-.064v-.064l.064-.064v-.064c0-.064 0-.064.064-.128l.064-.063c0-.064.128-.128.128-.192s.064-.064.064-.128v-.064s-.064 0 0-.063c0 0 .063-.064.063-.128.064-.064 0-.064.064-.128l.064-.064v-.319s.064-.064 0-.064c0-.064.064-.128.064-.128 0-.063.064-.063.064-.127s.064-.128.064-.192c0 0 0-.064.064-.064v-.064c0-.063.063-.063.063-.127v-.128c.064 0 0-.064.064-.064v-.064c0-.064.064-.064.064-.127v-.128h.064v-.064c0-.064 0-.064.064-.064v-.064c.064 0 .064-.191.127-.191.064-.128.128-.256.192-.447.064-.064.064-.192.128-.256 0 0 0-.063.064-.063v-.064c0-.064.064-.128.064-.128v-.064c0-.064 0-.064.063-.128.064-.063.064-.127.064-.191v-.128s0-.064.064-.064v-.064s0-.063.064-.063v-.064c0-.064.064-.064.064-.128v-.064c0-.064.064-.064.064-.128 0-.063.063-.063.063-.127 0 0 .064 0 .064-.064 0 0 0-.064.064-.064 0-.064 0-.192.064-.192V5.94l.064-.064c-.064-.064 0-.064.064-.128 0 0 .064 0 .064-.064V5.62c0-.064.063-.064.063-.127 0-.064 0-.064.064-.128l.064-.064c0-.064.064-.064.064-.128a.882.882 0 00.192-.255s0-.064.063-.064h.064s0-.064.064-.064c0-.064 0-.064.064-.064l.064-.064.064-.063.064-.064s0-.064.063-.064c0 0 .064 0 .064-.064v-.192l.064-.063v-.064h.064v-.064h.064V3.96h.064s.064-.064.064-.128h.127c.064 0 0-.064.064-.064h.064v-.191h.064v.128h.064V3.64l.064-.064v-.128h.063v-.064s.064 0 0 0v.064h.064v-.064h.128v-.255s.064.064.064 0v-.383l.064-.064h.064s-.064-.064 0-.064v-.064h.063v-.191l.064-.064.064-.064v-.064s0-.064.064-.064v-.064l.064-.063V.447c0-.064 0-.064-.064-.064V0c0-.064-.064-.064-.064-.064v-.064l-.064-.064v-.063c0-.064-.064-.064-.064-.128v-.064l-.064-.064c-.063-.064-.063-.128-.127-.191l-.064-.064V-.83h-.064s-.064 0-.064-.064v-.064h-.128l-.063-.064h-.064s-.064 0-.064-.064c-.064 0-.064-.063-.128-.063s-.064 0-.127-.064h-.192l-.064-.064h-1.022c-.063 0-.063.064-.127.064s-.064 0-.128.064c-.064 0-.064.063-.128.063-.191.064-.383.256-.574.384C20.1.638 20.036.638 19.972.702v.064h-.064s-.063.064 0 .064c-.063 0-.063.064-.063.064 0 .064-.064 0-.064.064 0 0 0 .064-.064.064l-.128.127-.128.128c-.063.064-.127.192-.191.256 0 .063-.064.127-.064.191-.064 0-.128.192-.191.256-.064.063-.064.191-.128.255a2.267 2.267 0 01-.256.575c-.064.127-.064.191-.127.319-.064.128-.128.191-.128.32 0 .127-.064.255-.128.382-.064.128-.064.256-.128.32-.063.191-.191.383-.255.574-.064.128-.064.192-.128.32-.063.127-.063.191-.127.319-.064.191-.128.447-.192.638 0 .064-.064.128-.128.192 0 .064-.063.192-.063.255-.064.128-.128.32-.192.447a4.4 4.4 0 01-.192.511c-.064.256-.191.447-.255.703a.484.484 0 01-.128.255c0 .128-.064.192-.128.32-.063.127-.127.255-.127.382-.064.128-.064.32-.128.447-.064.192-.128.32-.192.511-.063.192-.127.447-.191.639-.192.51-.383 1.022-.51 1.532 0 .064 0 .064-.065.128 0 .064 0 .064-.064.128 0 .064-.063.064-.063.127-.064.064-.064.064-.064.128 0 .128-.064.192-.064.32 0 .191-.064.255-.128.447 0 .063-.064.127-.064.255-.064.128-.191.255-.191.447 0 .128-.064.191-.128.32 0 .127-.064.19-.064.319 0 .063-.064.191-.064.255-.064.064-.064.191-.127.255-.064.128 0 .192-.064.32-.064.127-.128.191-.128.319v.32c0 .063-.064.127-.064.127 0 .064-.064.128-.064.191v.192c0 .064-.064.128-.064.192-.063.255-.127.574-.255.83-.064.127-.064.255-.128.447-.063.127-.127.255-.127.383-.064.255-.128.575-.192.83 0 .128-.064.192-.064.32v.127c0 .064-.064.128-.064.192 0 .063 0 .127-.064.191-.063.128-.127.255-.127.383-.064.32-.192.575-.256.83-.063.256-.127.447-.191.703 0 .127 0 .191-.064.319a.487.487 0 01-.128.32c0 .063-.064.127-.064.255v.127c0 .064-.063.064-.063.064v.192c-.064.064 0 .128-.064.191 0 .128-.064.256-.128.447-.064.192-.128.447-.192.639 0 .128-.063.255-.063.32-.064.19-.064.446-.128.638 0 .127-.064.191-.064.319s-.064.192-.064.32c0 .063-.064.255-.064.319-.064.063-.064.191-.064.319s0 .191-.063.32c-.064.127-.064.318-.128.446 0 .128-.064.255-.064.383s-.064.192-.064.32c0 .127-.064.319-.064.51l-.191.958c0 .128-.064.256-.064.447 0 .192-.064.447-.128.639 0 .064-.064.128-.064.255 0 .192-.064.32-.064.511-.063.32-.063.639-.191.894 0 .128-.064.255-.064.32-.064.382-.128.83-.192 1.212 0 .192-.063.384-.063.575v.511l-.064.064v.128c0 .127-.064.255-.064.383H9.5v.127c-.064 0 0 .064-.064.128-.064 0-.064-.064-.064-.064-.064-.064-.064-.064-.127-.064 0-.063 0-.063-.064-.127v-.064c0-.064.064-.192 0-.255 0-.064-.064-.064-.064-.128s.064-.064 0-.128c0-.128-.064-.128-.192-.128 0-.063.064-.063.064-.063v-.575c0-.064-.064-.128-.064-.192s-.064-.127-.064-.191l.064-.064v-.128c0-.128.064-.064.064-.191-.064-.192 0-.128 0-.256 0-.064 0-.128-.064-.191l-.064-.064c-.063 0 0-.064-.063-.064v-.064c-.064.064-.064 0-.064-.064v-.064s-.064 0 0-.064l.127-.063h-.063c0 .063-.064 0-.064 0v-.32l.064-.064v-.063c-.064-.064 0 0 0-.064v-.447c0-.064-.064-.064-.064-.128v-.128l-.064-.064v-.063s-.064-.064 0-.064v-.128s0-.064-.064-.064v-.064c0-.064-.064-.127-.064-.191v-.511s0-.064-.064-.064l-.064-.064c0-.064 0-.128-.063-.128v-.191s-.064-.064 0-.064h.063v-.064c0-.064-.063-.128-.063-.128-.064-.063-.064-.063-.064-.127v-.383c0-.064 0-.064-.064-.064v-.128l-.064-.064c-.064-.064-.064-.127-.064-.191v-.064s-.064 0-.064-.064.064 0 0-.064h-.064v-.128s.064-.063 0-.063c0-.064-.063-.064-.063-.064-.064 0-.064 0-.064-.064v-.511h-.064c0-.128-.064-.255-.064-.383v-.064c0-.064 0-.064-.064-.064-.064-.064-.064-.128-.064-.191v-.32s.064 0 .064-.064h-.064v-.638s.064-.064 0-.064v-.192c0-.063 0-.063.064-.063 0 0 .064 0 .064-.064v-.256s-.064 0-.064-.064c0 0 .064 0 .064-.063v-.064s.064 0 .064-.064l-.064-.064c-.064 0-.064 0-.128-.064v-.127c0-.064.064-.064.064-.064v-.064l-.064-.064v-.128h.064c0-.064 0-.064-.064 0H7.52v-.064h.064v-.064H7.52s-.063-.127 0-.127h.064v-.128s-.064 0-.064-.064v-.255c0-.064-.063-.064-.063-.128v-.447c0-.064-.064-.128 0-.191v-.703l-.064-.064v-.319c0-.064 0-.064-.064-.128v-1.405c0-.063 0-.191-.064-.255v-.128c0-.064 0-.064-.064-.127 0-.064-.064-.192-.064-.256s0-.064-.063-.064v-.191c0-.064-.064-.064-.064-.128v-.128l-.064-.063s0-.064-.064-.064l-.064-.064-.064-.064-.064-.064c-.063-.064-.127-.064-.127-.064h-.064c-.064 0-.064 0-.128-.064h-.766c-.064 0-.064 0-.128.064h-.064l-.064.064h-.063c-.064 0-.064 0-.128.064-.064 0-.064.064-.064.064-.064.064-.128.064-.192.128-.063.063-.127.063-.127.127-.064.064-.128.128-.128.256-.064.127-.128.191-.128.319-.064.128-.064.255-.127.383v.064l-.064.064c0 .064 0 .127-.064.191 0 0 0 .064-.064.064v.064c0 .064-.064.064-.064.128v.191c-.064.128-.064.256-.128.383 0 .064 0 .064-.063.064v.064c0 .064-.064.128-.064.192s-.064.127-.064.127c-.064.192-.128.447-.192.639 0 .064-.064.128-.127.192-.511.255-.511.255-.511.383 0 .064-.064.127-.064.255 0 .064-.064.128-.064.192-.064.064-.064.127-.064.191s-.064.128-.064.192v.191c0 .064-.064.192-.064.256-.063.127-.063.255-.127.383s-.064.255-.128.383c0 .128 0 .128-.064.192s-.064.127-.064.191c-.064.064-.127.128-.127.192s0 .127-.064.191c-.064.128-.128.256-.128.447 0 .128-.128.192-.192.32 0 .063-.063.127-.063.191v.256c-.064.063-.064.191-.128.255 0 0-.192.128-.064.128-.064.064-.128.064-.064.191l-.064.128v.191c-.063.192-.127.32-.191.511-.064.192-.192.384-.256.575h.064c0 .064 0 .128-.064.192 0 .064-.063.127-.063.191v.128l-.064.064c0 .064 0 .127-.064.191 0 .064 0 .128-.064.128 0 .064 0 .128-.064.192 0 .127-.064.191-.128.319-.063.128-.063.192-.127.32-.064.255-.128.51-.128.765 0 .128.064.256.128.384.127.191.255.383.447.447.064.063.191.063.255.127h.703s.063 0 .063-.064h.064l.064-.063c.064 0 .064 0 .128-.064s.191-.064.255-.128l.128-.128s.064 0 .064-.064c0 0 0-.063.064-.063.063-.064.127.063.127 0v-.064c-.064-.064 0-.128 0-.192s0-.064.064-.064.064-.064 0-.127v-.064s.064 0 0-.064c0 0 .064 0 .064-.064v-.128c-.064.128-.064.128-.064.064v-.128c0-.063.064-.063.064-.127l.064-.064s-.064 0 0-.064c0-.064.064-.064.128-.128v-.063s.063 0 .063-.064v-.128c0-.064.064-.128.064-.192l.064-.064s.064 0 .064-.063c0-.064-.064 0-.064 0v-.064h.064v-.128h.064v-.128l.064-.064s.064 0 0 0 0-.063 0-.063l.064-.064v-.192c0-.064.063 0 .063-.064v-.064h-.127v-.063s0-.064.064 0h.063v-.064s-.063 0 0 0h.064v-.256h.064v-.063h-.064c-.064 0 0 0 0-.064v-.064h.064v-.064c0-.064 0-.064.064-.064v-.064h.064v-.447h-.064v-.064s.064 0 0 0v-.064s.064 0 .064-.063l.064-.064h-.064v-.064c0-.064 0 0 .064 0s0-.064 0-.064v-.064s.064-.064 0-.127c0 0 0 .063 0 0v-.192h.127v.064c0-.064-.063 0-.063-.064H3.88v-.192s.064.064.127.064v-.255h.064v-.192l.064-.064v-.063l.064-.064h.064v.064h.191v.063s0 .064.064.064h.064s.064 0 0 0v.128s-.064.064 0 .064v.064l.064-.064.064-.064c.064 0 .064 0 .064.064s0 .064-.064.064h-.064v.191s-.064 0 0 .064c0 0 .064 0 .064.064v.192c0 .063.064 0 .064.063v.064c-.064.064 0 .128 0 .192l.064.064h.063v.191h.064v.256c0 .064 0 .064-.064.127l.064-.063v.83c0 .064 0 .127.064.191v1.789c.064 0 0 .192.064.128v.064s.064 0 .064.064v1.02c0 .128.064.256.064.383v1.788c0 .064 0 .128.064.192v.766c0 .064 0 .128.063.128v.128c0 .063.064.063.064.063v.832c0 .063 0 .063.064.127v.32c-.064 0 0 0 0 .063v.957l.064.064v.703c0 .063 0 .127.064.127v.703s-.064.064 0 .064v.255h.128l.063.064v.255c0 .064 0 .064-.063.064h-.128s.064 0 0 0c0 0-.064 0 0 .064h.255v.958h-.064l.064.064v.83h.064v.064c0 .063.064.063.064.063v.256s0 .064 0 0v.702l.064.064v.319c0 .064 0 .128.064.192v.702c-.064 0 0 0 0 .064v.256c0 .063 0 .063.064.063v1.341c0 .064 0 .064.063.128v.128c0 .064 0 .064.064.128v.255c0 .064.064.064.064.128h.064l.064.064.064.063v.064l.064.064.063.064h.064l.064.064h.064c.064 0 .064.064.128.064h.639c.064 0 .064 0 .128-.064l.191-.064v-.064h.064l.064-.064h.192l.064-.064.063-.063.064-.064.064-.064v-.064l.064-.064v-.255c0-.064 0-.064.064-.128v-.766c0-.064 0-.128.064-.192 0-.064 0 0 .064-.064h-.064v-.447h.064v-3.895c-.064 0 0-.064 0-.064v-1.596s0-.064 0 0v-1.788c0-.064.063-.064 0-.064v-.894c0-.064.063-.064.063-.128v-.383h.064v-.511s0-.063.064-.063h.128l.064-.064v-.256h-.064c3.256.83 3.256.83 3.256.767v-.384s0-.063.064-.063v-1.086c0-.064.064 0 .064-.064v-.064s.064 0 .064-.064v-.127l.064-.064v-.128h.064v-.447h-.064v-.191h-.064s-.064 0-.064-.064v-1.341h.064V31.8h.064l-.064-.064v-.191l-.064-.064v-.128c0-.064 0-.064.064-.064v-.064c.064-.064.064-.127 0-.191v-.319l.064-.064-.064-.064v-.128c0-.064 0-.128.064-.192l.064-.063v-.192c0-.064 0-.064.064-.064v-.511h.063c.639.128.703.128.767.064-.064 0-.064.064 0 0 0 0-.064 0 0 0zm10.089-5.811s-.064 0 0 0c-.064 0-.064 0 0 0-.127 0-.191 0-.255.064-.064 0-.128.064-.192.064 0 0-.064 0-.064.064h-.063c-.064 0-.064 0-.064.063 0 0-.064 0-.064.064l-.064.064s-.064 0-.064.064h-.064c-.064.064-.191.128-.255.192l-.128.127c-.064.064-.064.064-.064.128 0 0 0 .064-.064.064 0 .064-.064.064-.064.128 0 .063-.063.127-.063.191s-.064.128-.064.192v.064c-.064.063-.064.127-.064.191s0 .128-.064.192c0 .127-.064.255-.064.383v.638c.064 0 0 .064 0 .128v2.299s-.064.064 0 .064c-.064 0 0 .127 0 .127v.32l-.064.064c0 .063 0 .127-.064.191-.063 0-.063.192 0 .192v.064s-.063.063 0 .063c0 0-.063.256 0 .256v.064l-.063.064c0 .063 0 .063.064.127 0 .064-.064.128 0 .192v.255s0 .064-.064.064v.319s0 .064-.064.064v1.086c0 .064-.064.064-.064.127v.192c0 .064.064.064.064.128v1.341h.064v.127c0 .064.064.064.064.064l.063.064.064.064h.064v.064c.064 0 .064.064.064.064.064 0 .064 0 .064.064 0-.064.128 0 .128 0h.319c.064 0 .127-.064.127-.064s.128 0 .128-.064h.064c0-.064.128-.064.192-.064s.064-.064.127-.064l.064-.064h.192s.064 0 .064-.064c0 0 .064 0 .064-.063 0 0 .063 0 .063-.064l.064-.064h.064v-.064s0-.064.064-.064l.191-.191s0-.064.064-.064l.064-.064c.064-.064.064-.128.064-.128 0-.064.064-.064.064-.128 0-.063.064-.127.064-.127l.064-.128v-1.149c.063 0 .063-.064.063-.128v-.128s-.063-.064 0-.128c0-.063 0 0 .064-.063v-.831s-.064-.063 0-.063v-.958c.064 0 0-.128 0-.128v-.191c0-.064.064-.064.064-.128v-.447h-.064v-.064s-.064 0 0-.064v-.191c-.064 0 0-.064 0-.064v-.128c.064 0 0-.064 0-.064s.064 0 .064-.064c0 0 0-.063.064-.063h.064v-.256s0-.064.064-.064v-.064c0-.064.064-.064.064-.064v-.255c0-.064.063 0 .063-.064 0 0-.063 0-.063-.064v-.064c0-.063.063-.063.127-.063 0-.064-.064-.064-.064-.128v-.128c0-.064 0-.064.064-.128 0 0 0-.063.064-.063v-.064l.064-.064c.064-.064.064-.128.128-.128l.127-.127.128-.128c.064-.064.064-.128.128-.128l.064-.064v-.064h.064s.063 0 .063-.064l.064-.063s0-.064.064-.064h.064l.064-.064h.064c.063 0 .063-.064.063-.064l.064-.064c.064 0 .064-.064.128-.064l.128-.127.064-.064h.063l.064-.064s.064 0 .064-.064c.064 0 .128-.064.128-.064.064 0 .064-.064.064-.128h.064c.064-.063.127-.191.191-.191 0-.064.064-.064.064-.128 0 0 0-.064.064-.064 0 0 .064 0 .064-.063v-.064s0-.064.064-.064c0-.064.064-.128.064-.192-.064 0 0-.127 0-.191v-.256l-.064-.064v-.063s0-.064-.064-.064c0 0 0-.064-.064-.064v-.192l-.064-.064s0-.063-.064-.063v-.128l-.064-.064-.127-.128-.064-.063h-.064c-.064 0-.128-.064-.192-.064h-.447s-.064-.064-.064 0v.064h-.063v-.064h-.064l.064.064-.064.063h-.128s-.064 0-.064.064c-.064 0-.064.064-.064.064h-.191c-.064 0-.128 0-.128.064h.064v.064H25.4c-.064 0-.127.064-.127.064-.064 0-.064.064-.064.064-.064 0-.128.063-.192.063s-.128.064-.191.064h-.128c-.064 0-.128 0-.128.064h-.894c0 .064 0 0 0 0zm-3.001-3.065c.064-.064 0-.127 0-.191v-.064c-.064 0-.064-.064-.064-.064 0-.064 0-.064-.064-.128v-.255l-.064-.064v-.128c0-.063 0-.127-.064-.063h-.51v.063h-.064c-.064 0-.128.064-.128.064l-.064.064h-.064c-.063 0-.063.064-.127.064s-.064 0-.128.064l-.064.064c-.064.064-.191.127-.255.191l-.128.128c-.064.064-.064 0-.128.064 0 .064-.064.064-.127.127-.064 0-.064.064-.128.064-.064.064-.128.128-.128.192 0 0 0 .064-.064.064l-.064.064v.127s0 .064-.063.064l-.064.064v.128c0 .064-.064.064-.064.128v.574l.064.064v.064c0 .064.064.064.064.128v.127h.064c0 .064 0 .064.063.128l.064.064h.192v.064s.064-.064.064 0h.191c.064 0 .064.064.128.064h.128v-.064l.063-.064h.064c0-.064.064 0 .064-.064 0 0 .064 0 .064-.064-.064-.064.128 0 .128-.064 0 0 0-.064.064-.064h.063s0-.063.064-.063c0 0 .064 0 .064-.064h.064s.064 0 .064-.064h.064s0-.064.064-.064l.127-.064.064-.064v-.064s0-.063.064-.063l.064-.064c.064 0 .064-.064.127-.064v-.128c0-.064.064-.064.064-.064.064 0 .064 0 .064-.063l.064-.064s0-.064.064-.064V21.2h.064v-.064c0-.064.064-.064.064-.127v-.256h.063s-.063 0-.063-.064c0 0 0-.064.063-.064-.255.064-.255.064-.191 0-.064 0-.064 0 0 0zm18.263 5.492c0 .064 0 .064.063.128l.128.127.064.064c.064 0 .128 0 .192.064h.383c.063 0 .255-.064.319-.064.064-.064.255-.127.32-.191.063-.064.127-.064.19-.128h.065v-.064h.063l.128-.128h.064v-.063h.064c.064 0 .064-.064.128-.128.063-.064.127-.064.127-.128l.192-.191c0-.064.064-.064.064-.128v-.128c0-.064.064 0 .064-.064.064 0 .064-.063.064-.127v-.128c-.064 0-.064 0 0 0v-.128s0-.064.063-.064v-.191l-.063-.064v-.639s-.064 0 0-.063v-1.214l.127.064h.064v-.191h-.064v-.128h-.064v-.128h.064v.064h.064v-.192h-.064s-.064 0-.064-.063v-.383h.064v-.064c0-.064-.064-.128 0-.128l.064-.064h.064v-.191l.064-.064h.064v-.064s-.064 0-.064-.064v-.256l-.064-.063v-.128h.064l-.064-.064v-.192s.064 0 .064-.063v-.064s0 .064-.064 0v-.256h.064v-.191h-.064v-.064s.064 0 .064-.064l-.064-.064v-.127c0-.064 0-.064.064-.064v-1.15h.064-.064v-.127s.064 0 0 0v-.128h-.064.128v-.192h-.064l.064-.064v-.127l-.064-.064h.064v-.766h-.064v-.128s0-.064 0 0v-.192H41.3s0 .064 0 0v-.064h-.511l-.064.064s-.063.064-.127.064l-.128.128h-.064v.064s-.064 0-.064.064h-.063l-.064.127s-.064.064-.064.128c0 0 0 .064-.064.064l-.064.064v.064l-.064.127v.064l-.064.064v.255l-.064.128v.447l-.063.064v.639s0 .063 0 0v1.085h-.064v.639s0 .063.064.063v.384h-.064v.064h-.064v2.234s-.064.064 0 .064v.256c0 .064 0 .319-.064.319 0 .064-.064.128 0 .192v1.404c0 .064 0 .128.064.192-.766.255-.766.383-.703.383z" fill="#1D1D1B"/><path d="M59.563 20.05s-.064.064-.064 0c0-.063.064-.063.064-.063v-.064c0-.064 0-.064.063-.064v-.128c0-.064 0 0 0 0s-.063 0-.063-.064l.063-.063c0-.064-.063 0-.063-.064v-.128c-.064 0 0-.064-.064-.064 0 0-.064 0-.064-.064 0-.063-.064 0-.064-.063v-.064l-.064-.064c0-.064 0-.064-.064-.064l-.064-.064h-.063v-.064s0-.064-.064-.064l-.064-.064v.064s-.064 0-.128-.064c0 0 0-.063-.064-.063 0 .063-.063 0-.063 0 0 .063 0 .063.063.063h-1.341c-.063 0-.127 0-.191.064-.064 0-.128.064-.192.064h-.064c-.127.064-.191.064-.319.128-.064 0-.128.064-.128.064s0 .064-.063.064h-.064c-.064 0-.064.064-.128.064 0 .063-.064.063-.128.063-.063 0-.063.064-.127.064s-.064.064-.128.064c-.064.064-.128.064-.192.128h-.064l-.063.064h-.064c0 .064-.064.064-.064.064h-.064c.192.127.128.127.128.127l-.064.064h-.064s-.064 0-.128.064h-.063s-.064 0-.064.064h-.064c-.064 0-.064 0-.064.064 0 0-.064 0-.064.063-.064 0-.128.064-.128.064-.064 0-.127.064-.127.064h-.064c0 .064-.128.064-.128.064-.064 0-.128.064-.191.064-.128.064-.256.064-.32.128h-.127c-.064 0-.064-.064-.128 0-.064 0-.064-.064-.128-.064-.064-.064 0-.128-.064-.128 0 0-.064-.064-.128 0 0 0-.063 0-.063-.064v-.064c0-.064-.064 0-.064 0s-.064-.064 0-.064v-.063c-.064 0 0-.064-.064-.064 0 .064-.064.064-.064 0-.064 0 0 0-.064-.064h.064s-.064-.064 0-.064.064-.064.128-.128v-.064h-.128v-.063c-.064 0 .064-.128.064-.128h-.128v-.192c0-.063 0-.063-.064-.063v-.064h.064v-.064c0-.064-.064 0-.064 0-.063 0-.063-.064-.063-.128h.063c.064-.064-.063 0-.063 0-.064 0 0-.064 0-.064h.063v-.128s0-.063-.063-.063c-.064 0 0 .063 0 .063h-.064v-.191c.064 0 .064.064.064 0v-.192s0-.064-.064-.064V18.2s0-.064.064-.064v-.319c0-.064.063 0 .063-.064s.064-.064 0-.064c0 0-.063 0-.127-.064v-.255s.064 0 .064-.064 0-.064-.064-.064l-.064-.064v-.192h.064c.064 0 0-.063 0-.063 0-.064 0-.064-.064-.064s-.064 0-.064-.064v-1.022s.064-.064 0-.064v-.191h.128s-.064 0-.064-.064v-.064h-.064v-.128c0-.063 0-.063.064-.063s.064 0 .064-.064 0-.064-.064-.064-.064 0-.064-.064v-.192h.128s0 .064.064 0v-.063c-.064 0-.064 0-.064-.064s0-.064-.064-.128c0-.064-.064-.064 0-.064v-.127s.064 0 .064-.064h-.064c0-.064.064 0 .064 0v-.064s-.064 0-.064-.064c0 0 0-.064.064-.064l.064.064c.063 0 0-.064 0-.064-.064.064 0-.064-.064-.064v-.319c0-.064-.064.064-.128.064 0 0-.064.064-.064 0v-.064l.064-.064v-.064c-.064 0-.064-.064-.064-.064v-.319s0-.064.064-.064h.192v-.064h-.128V12.9s.064 0 .064-.064c0 0 .064 0 0-.064h-.064c-.064 0 0-.064-.064-.128l-.064-.064v-.191h.128c0-.064-.064-.128-.064-.128h-.064v-.064c0-.063-.064-.127-.064-.191 0 0 .064-.064 0-.064 0 0 0 .064-.064 0v-.192l-.063-.064v-.127c0-.064-.064 0-.064.064-.064 0-.064-.064-.128-.128l-.064-.064-.064-.064c-.127-.064-.255-.064-.383-.127-.064 0-.128 0-.191-.064h-.384c-.063 0-.127 0-.191.063h-.319c-.064 0-.064 0-.128.064-.064 0-.128 0-.192.064l-.063.064c-.064 0-.064.064-.128.064s-.128.064-.192.064c-.128.064-.191.127-.32.191-.063 0-.127.064-.127.064-.064 0-.127.064-.127.064s0 .064-.064.064l-.064.064-.128.127c0 .064-.064.064-.128.128l-.064.064s-.063 0-.063.064c-.064.064-.192.128-.256.255 0 0 0 .064-.064.064h-.063c0 .064-.064.064-.064.128l-.128.128s-.064 0-.064.064c-.064 0-.064 0-.064.063 0 .064-.127.064-.127.128-.064 0-.128.064-.128.064h-.064l-.064.064s-.064 0-.064.064h-.128c-.063 0-.127.063-.191 0h-.255c-.064 0-.064 0-.064-.064s0-.064-.064-.064h-.256s-.063 0-.063.064l-.064.064c-.064.063-.128 0-.192 0h-.191c-.128 0-.256 0-.447.063-.064 0-.128.064-.192.064h-.128c-.064 0-.127.064-.191.128-.064 0-.128.064-.192.064l-.064.064h-.127s0 .064-.064.064-.128.127-.128.191l-.128.128c0 .064-.063.064-.063.128-.064.063-.064.063-.064.127s-.064.128-.064.192-.064.128-.064.191c-.064.128-.128.256-.128.384v.383c0 .127 0 .255-.064.383v2.681c-.064 0 0 .064 0 .064-.064.063 0 .127 0 .127v.064c0 .064-.064.064 0 .128v2.107c.064 0 0 .064 0 .064v1.596c0 .064 0 .192.064.256 0 0 0 .064.064.064 0 .064 0 .064.064.127.064.064.064.128.191.192.064.064.128.128.192.128h.256c.063 0 .127.064.255 0 .064 0 .191 0 .255-.064a.484.484 0 00.256-.128c.064 0 .064 0 .064-.064 0 0 .063-.064.127-.064s.064-.063.064-.063h.064s.064 0 .064-.064c.064 0 .128-.064.128-.064s.063 0 .063-.064l.064-.064h.128v-.064l.064-.064.064-.063c0 .063.127 0 .064 0-.064-.064.063-.064.127-.128v-.32h.064c.064 0 0 0 0-.063v-.192c.128 0 0-.064.064-.064l.064-.064s.064 0 .064-.064v-.063c0-.064.064 0 .064-.064v-.128c0-.064-.064-.064-.064-.064-.064-.064 0-.064 0-.127 0-.064-.064-.064-.064-.128.064 0 .064.128.064.128.064 0 0-.064 0-.064V21.2c0-.064.064-.064.064-.064v-.191c0-.064.063-.064.063-.128 0 0 0-.064-.063-.064 0 0-.064 0-.064-.064 0 0-.128 0-.128-.064s.128 0 .128 0v-.064h-.064c-.064 0-.064-.063-.064-.063 0-.064-.064-.064 0-.064 0 0 .064 0 .064-.064s0-.064-.064-.064c0-.064.064-.064.064-.064.064 0 .064-.064.064-.128h-.064c-.064 0-.064.064-.064.064h-.064l.064-.064s-.064 0-.064-.063v-.83c0-.064 0-.064.064-.064h.064c0-.064-.064-.064 0-.064l-.064-.064h-.064c0-.064.064-.064 0-.128-.064 0 .064-.064.064-.064v-.127s-.064-.128 0-.064v.127h.064s.064 0 .064-.063c.064 0 .064-.064 0-.064h-.064v-.128s-.064 0-.064-.064c0 0 .064 0 .064-.064v-.064h-.064c-.064 0-.064-.063-.128-.127 0 0-.064 0-.064-.064v-.128h.064s.064 0 0 0c0-.064-.064-.064-.064-.128 0-.063.192 0 .128-.063 0 0-.064 0 0 0h.064c.064 0 .064-.064.064-.128.064-.064 0-.064 0-.128v-.064l-.064-.063v-.064c0-.064 0-.064-.064-.064v-.128c0-.064.064-.128.064-.128.064 0 .128.064.128 0l-.064-.064h-.128c.064 0 .128 0 .128-.063 0-.064-.064 0-.064-.064 0 0 .064 0 .064-.064 0 0 .064 0 .064-.064s-.064 0-.064 0c-.064 0-.128 0-.064-.064h.064c0-.064-.064-.064 0-.064 0-.064.128 0 .064.064h.064c.063 0 0 0 .063-.064l.064-.064c0-.063-.064 0-.127-.063 0-.064 0-.064.063-.128 0 0 .064 0 .064-.064v-.319c0-.064-.064 0 0-.064v-.064h.064v-.191c0-.064.064-.128 0-.192v-.064s.064 0 .064-.064c.064 0 .064-.064.128-.064.063-.063.063-.127.063-.191l-.063-.064h.063v.064c0 .064.064 0 .064 0 0-.064.064-.064.064-.064l.128-.128.064-.064s.064 0 .064-.063c.063-.064.063-.128.063-.192.064 0 .064-.064.128-.064s0 0 0-.064v-.063s0-.064.064-.064c0 0 .064 0 .064-.064h.064c.064 0 .064-.128.128-.128l.063-.064h.128l.064-.064c.064 0 .064 0 .128-.063.063-.064.063-.064.127-.064h.128c.064 0 .064-.064.064-.064h.319c.128 0 .256.128.32.191l.063.064v.064h.064v2.426h-.064v.192h.064v.064c0 .064 0 .064-.064.064 0 0-.064.064 0 .127v.256c0 .064 0 .128-.064.192v.127c0 .064 0 .192-.063.256 0 .064 0 .064.063.127 0 .064.064.128.064.192s0 .128-.064.191v.767c0 .064-.063.064 0 .128 0 .063.064.063.064.063v1.086c0 .064 0 .128.064.191v.128c0 .064 0 .064.064.064l.064.064v.064s0 .064.064.064l.064.063c0 .064.063.064.127.128l.064.064.064.064c.064.064.128.064.192.064s.064 0 .064.064c0 .063 0 .063-.064.063 0 0-.064 0-.064.064-.064 0-.064.064-.128.064h-.064c-.064.064-.127.064-.191.128-.064 0-.064.064-.128.064s-.064.064-.128.064c0 0-.064 0-.064.063l-.064.064s-.063 0-.063.064l-.064.064c-.064.064-.128.064-.192.128-.127.063-.191.127-.32.127-.255.128-.446.32-.701.384-.064 0-.128.063-.192.063s-.064.064-.064.064-.064 0-.064.064c-.127.064-.191.128-.319.192-.064 0-.128.064-.128.064h-.064c-.064 0-.064 0-.064.063-.063.064-.127.064-.191.128h-.064c-.064 0-.064.064-.128.064l-.063.064s-.064 0-.064.064c-.128.064-.192.127-.32.191-.127.064-.255.128-.319.192l-.064.064h-.064s-.063 0-.063.063c0 0-.064 0-.064.064-.128.064-.256.128-.32.192-.127.064-.255.128-.319.191-.064.064-.128.064-.191.128-.064 0-.128.064-.128.064-.128.064-.192.128-.32.128-.063 0-.127.064-.19.064-.065 0-.065.064-.129.127l-.063.064h-.064c-.064.064-.128.064-.128.128-.128.064-.192.128-.32.191-.063 0-.063.064-.127.064 0 0-.064 0-.128.064 0 0-.064 0-.064.064 0 0-.063 0-.063.064-.064 0-.064 0-.064.064 0 0-.064 0-.064.064l-.064.063h-.064s0 .064-.064.064h-.191v.064h-.064c-.064 0-.128.064-.128.064s-.064 0-.064.064c0 0-.064 0-.064.064l-.063.064-.064-.064s-.064 0-.128.064v.063h-.064c-.064.064-.064.128-.128.128h-.063s0 .064-.064.064c-.064.064-.064.064-.128.064s-.128.064-.192.064c-.063 0-.127.064-.191.064s-.128.063-.192.063c-.064.064-.127.064-.127.064l-.064.064-.064.064c-.064.064-.064.064-.128.064-.064.064-.128.064-.128.128-.063 0-.063.063-.127.063s-.064 0-.128.064-.128.064-.128.128c-.064.064-.127.064-.127.064a.137.137 0 00-.128.128s-.064.063-.128.063h-.064l-.063.064-.128.064c-.128.064-.256.192-.447.255-.128.064-.256.192-.383.256-.256.192-.511.32-.767.447-.127.128-.319.192-.447.32l-.063.063h-.064c-.064 0-.064 0-.064.064 0 0-.064.064-.128.064s-.128.064-.128.064c-.063.064-.127.064-.191.064l-.064.063s-.064 0-.064.064c-.064.064-.128.064-.128.064s-.063 0-.063.064c-.064 0 0 0-.064.064 0 0-.064 0-.064.064 0 0-.064 0-.064.063v.064h-.064s0 .064-.064.064h-.064v.064l-.063.064s-.128.064-.192.064v-.128s.064 0 0-.064v-.191c0-.064.064-.128 0-.192 0-.064-.064-.128 0-.192v-.766c0-.064 0 0 .064-.064v-.191c0-.064-.064-.064-.064-.128s.064-.064.064-.128c-.064 0 0-.064 0-.064-.064 0-.064-.127 0-.191h.064l-.064-.064v-.064c0-.064.064-.064.064-.128v-.255c0-.064-.064 0-.064-.064v-.319s.064 0 0-.064h-.064v-.575s0-.063.064-.063c0 0 .064 0 .064-.064h-.064v-.447c0-.064.064-.128.064-.192-.064 0 0-.064 0-.064v-.894c-.064 0 0-.064 0-.127v-.511c0-.192.064-.383.064-.575v-1.213s-.064 0-.064-.064.064-.064.064-.064v-.638s.191-.064.063-.128c0 .064 0 .064-.063 0v-.256h.063c.064-.063 0-.063-.063-.127v-.064h.063v-.064s-.063 0 0-.064h.064v-.319s-.064-.064 0-.064c.064-.064.128-.064.064-.128l-.064-.064c0-.063 0-.063.064-.063v-.384c.064 0 .064 0 .064-.063v-.256h.064s.064-.064 0-.064l-.064-.063v-.192l.064-.064c-.064 0 0-.064 0-.064v-.319s.064-.064 0-.064c0 0-.064 0-.064-.064s.064 0 .064 0h-.064c-.064 0 0 0 0-.064s0-.127-.064-.127-.064 0-.064-.064l-.064-.064c0-.064-.063-.064-.127-.128-.064-.128-.192-.128-.32-.191-.063 0-.127-.064-.191-.064h-.256c-.127 0-.319 0-.447.064-.063 0-.063.064-.127.064 0 0-.064 0-.064.063h-.064v.064s-.064.064-.128 0h-.064c-.063 0-.063.064-.127.064s-.064.064-.128.064-.064.064-.128.128c0 .063-.063.063-.127.127l-.064.064v.064c-.064.064-.064.128-.064.192v.319c0 .064-.064.128-.064.192v3.959c0 .063-.064-.064-.064.063v.064c0 .064 0 0 .064 0v.256h-.064v1.085c0 .064 0 .128-.064.192v.702c0 .128-.064.192 0 .32v.127s0 .064-.064.064v.192c0 .063 0 .127-.063.191 0 .128 0 .256-.064.383v.128c0 .064 0 .128-.064.192-.064.255-.128.447-.255.638 0 .064-.064.064-.128.128l-.192.191c0 .064-.064.064-.064.064s0 .064-.063.064h-.064l-.064.064-.064.064h-.064s-.064 0-.064.064h-.128l-.063.064c-.064.063-.192.063-.32.063h-.255s-.064 0-.064-.063c-.064 0-.064 0-.128-.064-.064 0-.064-.064-.064-.064-.063-.064-.127-.064-.127-.128-.064-.064-.064-.128-.064-.192v-.127l-.064-.064c-.064-.128-.064-.256-.064-.383 0-.128-.064-.256 0-.383v-.064c0-.064-.064-.064-.064-.064v-.064c0-.064 0-.128-.063-.128V26.5l.063-.064c0-.064.064-.128.064-.191v-.192c0-.128 0-.255.064-.383v-.511l.064-.064v-.064c.064 0 .064-.127.064-.191s0-.128-.064-.192c-.064 0-.064-.064-.064-.064v-.383c.064 0 0-.255 0-.255v-.064c0-.064.064-.064.064-.128v-.255s0-.064.064-.064c0-.064.064-.128.064-.192 0-.063 0-.127.063-.191 0-.064.064-.128.064-.192.064-.064.128-.127.128-.191s.064-.128.064-.256c0-.064 0-.191.064-.191 0 0 0-.128.064-.064v-.064c.064 0 .064-.064.064-.128s.063-.128.063-.064c0 0 .064-.064.064-.127v-.128c-.064 0 0-.064.064-.064s.064-.064.064-.064c.064-.064.128-.064.128-.127h.063c0-.064 0-.128.064-.192 0-.064.128-.192.128-.128 0 0 .064 0 .064-.064 0 0 0-.063.064-.063 0-.064.064 0 .064-.064 0 0 .063-.064.063-.128v-.128h.064v-.127l.064-.064.064-.064v-.128s0-.064.064-.064v-.064c0-.063.064-.127.064-.191s0-.064-.064-.064v-.064c0-.064 0-.128.064-.128v-.383s0-.063-.064-.063l-.064-.064s0-.064-.064-.064h-.702c-.064 0-.128.064-.192.064s-.127 0-.127.064h-.064c-.064 0-.064 0-.064.063h-.064s-.064 0-.064.064c-.064 0-.128 0-.128.064l-.064.064-.063.064-.064.064h-.128s-.064.064-.064 0h-.127l-.064.064c-.128.063-.192.127-.256.191s-.191.128-.255.192l-.128.127-.064.064s0 .064-.064.064h-.063v.064s0 .064-.064.064c0 .064-.064.064-.064.127v.064h-.064s0 .064-.064.128-.064.128-.128.192l-.063.127s0 .064-.064.064v.064l-.064.064-.064.064c0 .064-.064.064-.064.127 0 .064 0 .064-.064.128v.064l-.064.064-.063.064v.064s0 .063-.064.063c0 0 0 .064-.064.064 0 0 0 .064-.064.064v.064s0 .064-.064.064c0 .064-.064.127-.064.191v.064s0 .064-.064.064v.064l-.063.064v.064c0 .064 0 .064-.064.127 0 .064 0 .064-.064.128 0 .064-.064.128-.064.128 0 .064 0 .128-.064.191 0 .064 0 .128-.064.192 0 .064 0 .128-.063.192 0 .127-.064.191-.064.319 0 .064 0 .127-.064.127v.064s.064.064 0 .064c0 .064 0 .128-.064.192v.255c0 .064-.064.064-.064.128v1.404c0 .064 0 .064-.064.127 0 .064 0 .064-.064.128v.383c.064 0 0 .192 0 .256s.064.064.064.064v2.043c.064.064 0 .064 0 .128v.255a.576.576 0 01.064.32v.063s0 .064.064.064c0 .064 0 .128.064.128 0 .064.064.127.064.127s0 .064.064.128c0 .064.063.064.063.064v.128l.064.064.192.191c.064.064.128.064.128.128v.064c.063.064.191.127.255.191.064 0 .128.064.192.064 0 0 .063 0 .063.064 0 0 0 .064.064.064v-.064h.319c.064 0 .064.064.128.064h.511c.064-.064.128 0 .192 0h.51c.064 0 .128-.064.256-.064h.064v-.064h.255s.128.064.128 0c0 0-.128 0-.128-.064s.064 0 .128-.064c.064 0 .064-.063.128-.063 0 0 .063.063.127 0v-.064h.064s0-.064.064-.064h.191c.064 0 .064 0 .128-.064.064 0 .128 0 .128-.064h.064v-.064c.064-.064.064 0 .127 0v-.064h.064l.064-.063h.128s0-.064.064-.064c0 0 .064 0 .128-.064l.063-.064c.064 0 .064 0 .128-.064l.064-.064h.128c.063 0 .063.128.063.192v.767s0 .064.064.064c0 .064 0 0-.064.064v.511s.064.063 0 .063v.064c-.063 0-.063 0-.127.064l-.064.064-.064.064s-.064 0-.064.064l-.127.127c-.064.064-.128.064-.192.128-.064 0-.064.064-.128.128s-.127.064-.127.128h-.064c-.192.063-.32.191-.447.255-.064.064-.128.064-.192.128l-.064.064-.064.064v.063h-.063l-.064.064c-.128.064-.192.192-.32.256-.127.063-.191.191-.383.319-.127.064-.255.255-.447.32 0 .063 0 .063-.064.063l-.063.064c-.064.064-.128.064-.128.064s-.064 0-.064.064c0 0 0 .063-.064.063s-.064 0-.064.064l-.064.064-.063.064h-.064c0 .064-.064.064-.064.064-.064 0-.064.064-.128.064s-.064.064-.128.064c-.063 0-.063.063-.127.063 0 .064-.064.064-.064.064l-.064.064s-.064 0-.064.064l-.064.064-.064.064c-.063 0-.063 0-.127.064s-.128.064-.128.127l-.192.192c-.063.064-.127.128-.191.128h-.064s0 .063-.064.063c0 0-.064 0-.064.064 0 0 0 .064-.063.064-.064 0-.064.064-.128.064s-.064.064-.128.064c0 .064-.064 0-.064.064 0 0 0 .064-.064.064 0 0-.064 0-.064.063v.064h-.063c-.064 0-.064.064-.128.128l-.064.064s-.064 0-.064.064c-.064 0-.128.064-.191.064l-.064.063s-.064 0-.064.064c0 0 0 .064-.064.064 0 0 0 .064-.064.064 0 0-.064 0-.064.064-.064 0-.064.064-.127.128-.064 0-.064.063-.128.127 0 0-.064 0-.128.064l-.064.064c-.063 0-.127.064-.191.128l-.064.064c-.064 0-.064.063-.064.063l-.064.064-.064.064s-.064 0-.127.064c-.064 0-.064.064-.064.064-.064.064-.128.064-.192.127l-.127.128c-.064.064-.128.064-.192.128s-.128.064-.128.128c-.064.063-.064.127-.127.127-.064.064-.064.064-.192.128a1.392 1.392 0 00-.32.256c-.127.063-.19.191-.319.255-.063.064-.127.064-.191.128l-.064.063c-.064 0-.064 0-.064.064l-.255.256c-.064.064-.192.128-.256.191-.064.064-.127.128-.191.128.064.064-.192.064-.128.192-.064 0 0-.064-.064 0 0 .063-.127.191-.191.191-.703.32-.767.32-.767.383-.064.064-.064.064-.191.064l-.064.064-.064.064c-.064.064-.064.128-.128.128a.77.77 0 00-.319.319c-.064 0-.064.064-.128.064 0 0-.064.064-.064.127-.063 0-.063 0-.063.064 0 0-.064 0-.064.064-.064.064-.128.064-.128.128-.128.064-.191.191-.32.255-.127.064-.255.256-.382.32 0 0-.064 0-.064.063 0 0 0 .064-.064.064s-.064 0-.064.064l-.064.064c-.064.064-.127.064-.191.128 0 0-.064 0-.064.063-.064 0-.128.064-.192.128l-.127.128c-.064 0-.128.128-.192.128 0 0-.064.064-.128.064l-.064.063c-.063.064-.127.064-.191.128s-.128.128-.192.128c-.127.064-.191.191-.319.255l-.128.128-.127.128-.128.127v.064h-.064c-.064 0-.128.064-.192.128 0 .064-.063.064-.063.064l-.064.064-.064.064s-.064 0-.064.063c0 0 0 .064-.064.064h-.064l-.063.064c-.128.192-.192.255-.192.32l-.32.319c-.063.064-.127.064-.127.127l-.192.192c-.127.064-.191.191-.319.255-.128.128-.255.192-.32.32l-.063.063-.064.064c-.064.064-.128.064-.128.128l-.127.128c-.064.064-.128.064-.128.127a1.392 1.392 0 01-.32.256c-.127.064-.19.191-.255.255l-.319.32-.192.191c-.063.064-.127.128-.127.192-.064.127-.192.255-.256.319s-.127.191-.191.255-.064.128-.128.192-.064.128-.128.192c-.064.063-.064.127-.064.191.064 0 0 .064 0 .064a.642.642 0 01-.063.191c0 .128.063.128.063.256v.128c0 .063 0 .063.064.127 0 .064 0 .128.064.128 0 0 0 .064.064.064 0 .064.064.128.064.192l.064.063c0 .064 0 .064.064.128 0 .064.063.064.127.064.064.064.064.128.128.128.128.063.192.127.32.191h.063s.064 0 .064.064h.128s.064 0 .064.064h.893c.064 0 .064 0 .064-.064h.064c.064 0 .064 0 .064-.064 0 0 .064 0 .064-.064 0 0 0-.064.064-.064 0-.063.064-.063.064-.063.064 0 .064-.064.064-.064s.063 0 .063-.064c0 0 0-.064.064-.064l.128-.128s0-.063.064-.063c0-.064.064 0 .064-.064 0 0 0-.064.063-.064l.064-.064.128-.128.192-.191v-.064c0-.064.064-.064.127-.128l.128-.128c.064 0 .064-.064.128-.127l.128-.128s.063 0 .063-.064l.064-.064s0-.064.064-.064l.064-.063s.064 0 .064-.064c0 0 0-.064.064-.064h.064s0-.064.063-.064l.064-.064v-.064s.064 0 .064-.064l.064-.063.128-.128c0-.064.063-.064.063-.128s0-.064.064-.128c0 0 .064 0 .064-.063h.064s0-.064.064-.064c0 0 .064 0 .064-.064 0 0 0-.064.064-.064l.127-.128c0-.064.064-.064.128-.064l.128-.127.064-.064s0-.064.063-.064c.064-.064.064-.064.128-.064l.128-.128c0-.063.064-.063.064-.063s0-.064.064-.064c0 0 .063 0 .063-.064.064 0 .064-.064.064-.128 0 0 0-.064.064-.064 0 0 .064 0 .064-.064l.128-.127.127-.128s.064 0 .064-.064c0 0 0-.064.064-.064l.128-.127c.064-.064.128-.064.128-.128.127-.064.127-.192.191-.256.064-.063.128-.191.256-.191 0 0 .063 0 .063-.064l.128-.128c0-.063.064-.063.064-.063l.064-.064c.064-.064.064-.064.064-.128l.064-.064v-.064s.063 0 .063-.064l.064-.064.064-.063.064-.064c.064-.064.064-.128.128-.128.064-.064.127-.064.191-.191 0-.064.064-.064.128-.064s.064-.064.128-.064c.063 0 .063-.064.127-.064 0-.064 0-.064.064-.064s.064 0 .064-.064.064-.064.128-.127c0 0 .064 0 .064-.064l.064-.064.127-.128.064-.064v-.064l.128-.127.128-.128c0-.064 0-.064.063-.064.064 0 .064 0 .064-.064l.128-.127.064-.064s0-.064.064-.064c0-.064.064-.064.127-.128l.064-.064s.064 0 .064-.064c0 0 0-.063.064-.063l.064-.064s.064 0 .064-.064c0 0 0-.064.063-.064.064-.064.064-.064.128-.064 0 0 0-.064.064-.064l.064-.064.064-.063.064-.064s.063-.064.127-.064c.064-.064.192-.128.256-.192l.127-.127c.064 0 .064-.064.128-.128l.064-.064s.064 0 .064-.064l.128-.128.127-.127c.064-.064.192-.128.256-.192.064 0 .064-.064.064-.064.063 0 .127-.064.191-.127l.192-.192c.063-.064.191-.128.255-.191l.128-.128h.064v-.064s.064 0 .064-.064l.127-.128.128-.127c.064-.064.128-.064.128-.128s.064-.064.127-.064c.064 0 .064-.064.128-.064l.064-.064h.064l.064-.063.127-.128s.064 0 .064-.064h.064s0-.064.064-.064l.064-.064c.064-.064.127-.064.127-.128l.128-.127c.064 0 .064 0 .064-.064 0 0 .064 0 .064-.064l.064-.064.064-.064h.127s0-.063.064-.063h.064l.064-.064.064-.064c.064-.064.128-.064.128-.128.063-.064.191-.128.255-.255 0 0 .064 0 .064-.064l.064-.064c.064 0 .064-.064.127-.064l.128-.128.128-.127.064-.064h.063s0-.064 0 0l.064-.064c.064-.064.128-.064.128-.128v-.064h.064c.064 0 .064 0 .064-.063 0 0 .064 0 .064-.064.063 0 .063-.064.127-.064l.128-.128s0-.064.064-.064h.128s.063 0 .063-.064v-.063h.064c0-.064.064-.064.064-.064s.064 0 .064-.064c.064 0 0 0 .064-.064l.064-.064s.064 0 .064-.064c0 0 0-.064.063-.064 0 0 .064 0 .064-.063l.064-.064.064-.064c.064 0 .064-.064.128-.064 0 0 .063-.064.127-.064 0 0 0-.128.064-.064.064 0 .128-.064.128-.064a.137.137 0 00.128-.127c.064-.064.127-.064.127-.128l.064-.064s.064 0 .064-.064l.064-.064c0-.063 0-.063.064-.063s.064-.064.127-.064c0-.064.064-.064.128-.128s.064-.064.128-.064.064-.064.064-.064c.064 0 .064-.063.127-.063.064-.064.128-.064.128-.128.064-.064.064-.064.128-.064 0 0 .064 0 .064-.064 0 0 .064 0 .064-.064.064 0 .064-.064.127-.064.064 0 .064-.063.128-.063 0 0 .064 0 .064-.064.064 0 .064 0 .128-.064v6.449l.063.064v.255h-.063v.064s0 .064.063.064v.703c0 .063-.063.127-.063.191v.383c0 .128 0 .192.063.32v1.341c0 .063 0 .127-.063.191v2.618c.063 0 0 .128 0 .192v1.532c.063 0 .063.064.063.064v1.66c0 .064.064.128.064.192v.255c0 .064.064.128.064.192s.064.064.064.128l.064.063.064.064c.064.064.127.064.127.128.064 0 .064.064.128.064a.198.198 0 00.128.064c.128.064.255.064.383.127.064 0 .128.064.192.064h.639s.063 0 .063-.064h.064l.064-.063s.064 0 .064-.064c.127-.064.255-.192.447-.32l.063-.063.064-.064c.064-.064.064-.128.128-.128 0 0 0-.064.064-.064v-.064c0-.063.064-.063.064-.127v-.128h.127s0-.064.064-.064h.064c-.064 0-.128-.064-.128-.064h-.063v-.191s.127 0 .127-.064h-.127.063v-.064c0-.064-.063-.064 0-.064 0 0 .064-.064.128-.064 0 0 .064-.064 0-.064 0 0 0 .064-.064.064s0-.064 0-.064h-.064s0-.063-.063-.063v.063h-.064v-.063s-.064 0-.064-.064c0 0 .064-.064 0-.064l-.064.064v-.064c-.064.064 0 0-.064-.064h-.064c-.064 0 0-.064 0-.064v-.064h.064c-.064 0 0-.064 0-.064h-.128s-.063.064-.063 0v-.127c.063 0 0 0 0 .063 0 0 0 .064.063.064h.064v-.063s.064 0 .064-.064c0 0-.064 0-.064-.064h-.064.064l.064-.064c-.064 0 0-.064 0-.064.064 0 0 .064 0 .064.064 0 .064-.064.064-.128h-.128c-.064 0-.064-.064-.064-.064-.063-.064-.063.064-.127 0 .064 0 .064-.127.127-.064 0 0 0 .064.064.064l.064-.064s0-.063-.064-.063c0 0-.064 0-.064-.064-.063 0 0 0-.063-.064-.064 0 0 0 0 .064v-.192h-.064c0 .064.064.128-.064.128-.064 0-.128-.064-.128-.064v-.064c0-.064.064 0 0-.064l-.064-.063v-.128h.064s.064 0 0-.064h-.064v-.064c0-.064.064 0 .128 0s.064-.064.064-.064l-.064-.064c-.064 0-.064.064-.064.064h-.064c-.127 0 0-.064 0-.064h.192s-.064 0-.064-.063l.064-.064.064-.064v-.064l.064-.064s-.064 0-.064-.064c0 0 .064 0 0-.064 0 0 0 .064-.064.064s0-.064 0-.064h-.064v-.063h-.064v-.447h-.064v-.064h-.064v.063h-.063s0-.063-.064-.063H36v-.064l.064-.064v-.064c-.064 0-.064 0-.064-.064s.128-.064.128 0c-.064 0 0 .064 0 0v-.191s.064 0 0-.064h-.064c0-.064.128-.064.064-.128 0-.064-.128 0-.064-.064 0 0 .064 0 .064-.064v-.063H36v-.128c.064-.064-.064-.064-.128-.064 0 0-.064.064-.064 0v-.064c.064-.064 0-.128 0-.191h.128v-.064c0-.064-.064-.064-.128 0 0-.064.064-.064 0-.064h-.063v-.064l-.128-.064.064-.064s.064-.127 0-.127c0 0-.064 0-.064-.064v-.128c-.064-.064.064-.064.128-.064l.063-.064h-.127v-.191s0-.064-.064-.064 0 .064 0 .064 0 .064-.064.064h-.064v-.128c0-.064.064 0 .064-.064s-.064-.064-.064-.064c0-.064.064-.064 0-.064 0-.064.128 0 .192 0v-.064s-.064 0-.064-.063v-.064h-.064v-.128h-.064c-.064 0 0-.064 0-.064v-.064h.064s0-.063.064-.063h.064c.064 0 .064-.064.064-.128l-.064.064c0 .064-.064 0-.064 0 0-.064 0-.064.064-.064v-.064l-.064.064s0 .064-.064 0v-.064s-.064 0-.064-.064.064 0 .064-.064v-.127.063h-.128v-.127c0-.064 0-.064-.064-.064v-.064h-.063c-.064 0 0-.064 0-.064l.063-.064h.064l.064-.064v-.064h.064v-.063h-.192.192s.064 0 .064-.064v-.064h-.064s.064-.064 0-.064h-.064l-.064-.064h.064c.064 0 .064-.064 0-.064 0 0-.064 0-.064-.063h-.064v-.064s-.063 0-.063-.064 0-.064.063-.064h.064v-.255s0-.064-.064-.064c0 0-.063.063-.127.063 0 0 .064 0 .064-.063 0 0-.064-.064-.064 0l.064-.064v-.064h-.064c-.064 0 0-.064 0-.064v-.128h.127v-.063h-.063v-.064c0-.064 0-.064.063-.064h-.063s.063 0 .063-.064h-.063v-.128s0-.064.063-.064v-.063s0 .063-.063.063v-.063s0-.064.063-.064c0 0 .064-.064 0-.064h-.063v-.256s-.064 0-.064-.063v-.192h.064v-.255h-.064.064v-.447s0-.064-.064 0v-.192h.064v-.192s.063-.063 0-.063h-.064v-.064s.064 0 .064-.064h.063V40.1h-.063v-.958c0-.063 0 0 .063-.063v-.511c0-.064-.063 0-.063-.064v-.511s-.064-.064 0-.064v-.191h.063v.063s.064 0 .064-.063v-.064l.064-.064h-.064s.064-.064 0-.064v-.128h.064v-.638h-.064v-.064h-.064v-.319l.064-.064v-.064s-.064 0-.064-.064v-.192l.064-.063v-.064l.064-.064v-.128h-.064c-.064 0 0-.064-.064-.064v-.51h-.063v-.064h.127v-.128c-.064 0-.064 0-.064-.064s.064-.064.064-.064v-.255c0-.064.064-.064.064-.064l.064-.064s0-.064.064-.064c0 0 0 .064.064 0 0 0 0-.064.064-.064h.063v-.063h.128s0-.064.064-.064c0 0 .064-.064 0-.064h.255c-.063 0 0-.064.064-.064h.064v-.064l.064-.064s.064 0 .064-.064c0 0 .064 0 .064-.064l.064-.063h.063v-.064l.064-.064h.256l.127-.128c0-.064.064-.064.128-.064h.064l.064-.063c.064-.064.064-.064.127-.064 0 0 .064 0 .064-.064 0 0 .064 0 .064-.064.064 0 .064-.064.128-.128s.128-.064.192-.127h.127v-.064s.064 0 .064-.064h.128c0-.064 0-.064.064-.064 0 0 .063 0 .063-.064 0 0 .064 0 .064-.064l.064-.064h.064s0-.064.064-.064.128-.063.191-.063c.064-.064.128-.064.192-.128h.064l.064-.064s.064 0 .064-.064l.127-.064c.064-.063.064-.064.128-.064s.064-.063.128-.063c0 0 .064 0 .064-.064 0 0 .063 0 .063-.064.064 0 .064-.064.128-.064s.128-.064.192-.128c.064 0 .127-.063.127-.063l.064-.064s.064 0 .064-.064v-.064h.128l.064-.064c.064-.064.127-.064.191-.128.128-.063.192-.127.32-.191.063 0 .063-.064.127-.064s.128-.064.192-.064c.128-.064.191-.128.32-.191.063-.064.127-.064.19-.128.065-.064.128-.064.192-.064.064-.064.128-.064.192-.128.064 0 .127-.064.127-.064.064-.063.064-.063.128-.063s.128-.064.128-.064l.064-.064h.064l.064-.064s.063 0 .063-.064c0 0 .064 0 .064-.064 0 0 .064 0 .064-.064.064 0 .064-.063.128-.063l.064-.064s.063 0 .063-.064l.064-.064h.064V29.5h.064s.064 0 .064-.064c.064-.064.064-.064.128-.064s.127-.063.191-.063c0 0 0-.064.064-.064 0 0 .064 0 .064-.064.064 0 .128-.064.191-.128.128-.064.192-.127.32-.127 0 0 .064 0 .064-.064l.127-.064.064-.064c.064 0 .128-.064.128-.064.064 0 .128-.064.128-.064h.064l.063-.064s.128 0 .128-.063h.128s.064-.064.127-.064h.064l.064-.064.064-.064s.064-.064.064 0l.064-.064s.064 0 .064-.064c.063 0 .127-.064.127-.064l.064-.064.128-.063.064-.064c.064 0 .127-.064.191-.064l.064-.064c0-.064 0-.064.064-.064h.128c0-.064.127-.064.127-.064l.064-.064s.064 0 .064-.063c.064-.064.064-.064.128-.064 0 0 .064 0 .064-.064 0 0 0-.064.064-.064h.191c.064 0 .128-.064.192-.064.063 0 .063-.064.127-.064s0 0 .064-.064h.128c.064-.063.128-.063.191-.063.064 0 .128-.064.192-.064s.128-.064.128-.064c.064 0 .128-.064.191-.064.064-.064.128-.064.192-.128 0-.063.064-.063.128-.063h.063l.064-.064h.064s.128-.064.192-.064c0 0 .064 0 .064-.064.064 0 .064 0 .064-.064h.127c.064 0 .064-.064.128-.064h.064l.064-.064c.063 0 .063-.063.127-.063 0 0 .064 0 .064-.064h.064l.128-.064.064-.064c.063 0 .127-.064.127-.064l.064-.064h.064c.064 0 .128-.064.128-.064.064-.063.128-.063.191-.127.064 0 .128-.064.192-.064 0 0 .064 0 .064-.064h.064c.063 0 .127-.064.127-.064s.064 0 .064-.064c.064 0 .064 0 .064-.064.064 0 .128-.063.192-.063.063 0 .127-.064.191-.064s.128-.064.128-.064c.064 0 .128 0 .128-.064.063 0 .127-.064.127-.064l.064-.064h.064l.064-.063c.064 0 .064 0 .064-.064.064 0 .127-.064.127-.064.064 0 .128-.064.192-.064l.064-.064h.064c.064 0 .064-.064.127-.064.064 0 .064 0 .128-.064.064 0 .064-.064.128-.064h.127s.064-.063.128-.063.064-.064.128-.064c.128-.064.255-.064.383-.128.064 0 .128-.064.192-.064s.319-.128.447-.128c.127-.063.255-.063.383-.127.064 0 .127-.064.191-.064s.128 0 .192-.064c.128-.064.255-.064.383-.128.064 0 .128 0 .192-.064.063-.063.191-.063.255-.127.128-.064.192-.064.32-.128.063 0 .063-.064.127-.064s.255-.127.32-.191c.063 0 .127-.064.127-.064.128-.064.192-.192.32-.192h.063l.064-.064s.064 0 .064-.063c.064 0 .064 0 .064-.064 0 0 .064 0 .064-.064.063-.064.063-.128.127-.192 0-.064.064-.064.064-.128l.064-.063v-.128h.064s0 .064.064.064c0 0-.064-.064 0-.064v-.128c.063 0 .063 0 .063-.064s.064-.127.064-.127v-.064s0-.064.064-.064v-.064h.064l.064-.064s-.064 0-.064-.064c1.086-1.34 1.086-1.34 1.086-1.404zm-19.03-7.47c0 .063 0 .063.064.127v.128l.192.192s.064.063.128.063c.063 0 .063 0 .127.064s.128.064.256.064h.574l.064-.064c.064 0 .128-.064.192-.064l.064-.063h.127s0-.064.064-.064c0 0 .064 0 .064-.064.064 0 .064-.064.128-.064l.191-.192c0-.063.064-.063.064-.127s.064-.064.064-.128c0 0 .064-.064.064-.128s.064-.064.128-.127l.127-.128c0-.064.064-.064.128-.064v-.128l.064-.064v-.063l.064-.064v-.319c0-.064 0-.064.064-.128l.064-.064v-.256c-.064 0-.064-.063 0-.127v-.064c0-.064 0-.064-.064-.064l-.064-.064v-.064l-.064-.063s0-.064-.064-.064v-.064l-.064-.064h-.958c-.063 0-.063 0-.127.064-.064 0-.064 0-.128.064h-.128c-.064 0-.064 0-.127.063h-.064s-.064.064-.128.064h-.064l-.064.064h-.127l-.064.064h-.128v.064l-.064.064s0 .064-.064.064h-.063v.127h-.064l-.064.064v.064l-.064.064v.128c-.064.063-.064.063-.064.127v.064s0 .128-.064.128v.511c0 .064.064.064.064.064-.192.319-.192.383-.192.447zM19.462 27.203c-.128 0-.128-.128-.192-.128s-.064-.191 0-.191l-.064-.064c0-.064-.063-.064-.063-.128s0-.192-.064-.256l-.128-.127v-.128c-.064 0-.128-.064-.128-.064h-.191c-.128 0-.256 0-.32.064-.191.064-.383.128-.574.255-.064.064-.128.064-.192.128-.064 0-.127.064-.191.128h-.128l-.064.064c-.064.064-.128.064-.128.128-.063 0-.127.127-.191.191s-.128.192-.192.255c-.064.192-.191.384-.255.575 0 .064-.064.128-.064.256 0 .063 0 .255-.064.255.064.128 0 .192 0 .32 0 .127-.064.255-.064.382v.447c0 .128-.063.256-.063.383 0 .064-.064.384 0 .447 0 .064-.064.064-.064.128v.703c0 .191 0 .447-.064.638v.766c-.128-.127-.064.192 0 .256 0 .064-.064.128-.064.191 0 .064.064.128 0 .192 0 .128-.064.255-.064.32 0 .127-.064.255-.064.382v.384c0 .191-.064.447 0 .638v.766c0 .128-.064.256-.064.383v.767c0 .064.064.191 0 .255.064.064 0 .128 0 .192s.064.127.064.127c0 .064.064.064.064.128s.064.064.064.128c.064 0 0 .064.064.064l.064.064c.064 0 .127.063.127.063a.696.696 0 00.32.064h.064c.063 0 .063 0 .063-.064h.192s0-.063.064-.063c0 0 .064 0 .064-.064.063 0 .127-.064.127-.064.064-.064.128-.064.256-.128a.137.137 0 00.127-.127l.128-.128c.064 0 .064-.064.128-.064l.191-.192c.064-.064 0-.127.128-.064.064 0 .128.064.128 0 .064-.063 0-.127.064-.191 0 .064.064.064.064.064h.063v-.064c0-.064.064-.128.064-.128 0-.127-.064-.064-.191-.064-.064 0 0 0-.064-.063v-.128c0-.064.064-.128.128-.192v-.191s0-.064.063-.064v-.383s-.064-.064 0-.064c0 0 0-.064.064-.064 0-.064 0-.064.064-.128v-.127s.064-.128 0-.128c0-.064 0-.192-.064-.256 0-.064.064-.127.064-.191v-.192c0-.064.064-.064.064-.127v-1.022c0-.064.064-.128.064-.192v-.191c0-.064.064-.064.064-.128v-.319s0-.064.063-.064c0-.064 0-.128.064-.192v-.574l.064-.064c.064-.064 0-.192.064-.256v-.064l.064-.063v-.575c0-.064 0-.128.064-.192v-.574c0-.064.064-.064.064-.128s0-.128.063-.192c0-.064.064-.127.064-.191s-.064-.128 0-.192c0 0 .064 0 .064-.064v-.063c0-.064 0-.064.064-.128v-.256l-.064-.063v-.128c0-.064.064-.128.064-.192s.064-.127.064-.127c0-.064-.064-.064-.064-.128v-.128c0-.064.064-.064.064-.064h-.064c-.064 0-.064-.127-.064-.127-.064-.064-.064-.128-.064-.192v-.255c.064 0 .192 0 .192-.064z" fill="#1D1D1B"/><path d="M65.374 31.161H43.28a6.295 6.295 0 00-6.322 6.322 6.295 6.295 0 006.322 6.322h22.094a6.295 6.295 0 006.321-6.322c0-3.512-2.873-6.322-6.321-6.322zm-17.05 8.749c0 .255-.128.447-.32.51-.063 0-.127.064-.19.064-.065 0-.129 0-.192-.064-.192-.063-.32-.255-.32-.51v-2.874c0-.32-.127-.639-.447-.702-.127-.064-.255-.064-.383-.064-.191 0-.319 0-.447.064-.127.063-.319.063-.447.191v3.385c0 .255-.127.447-.319.51-.064 0-.128.064-.191.064a.572.572 0 01-.575-.574v-2.938c0-.383-.192-.638-.511-.702-.128-.064-.255-.064-.383-.064-.32 0-.511.064-.703.128v3.576c0 .127-.063.319-.191.383-.128.127-.256.191-.383.191-.128 0-.256-.064-.384-.191-.127-.064-.191-.192-.191-.383v-4.087c.255-.128.51-.192.766-.256.32-.063.639-.063 1.022-.063s.702.063.958.127c.255.064.447.256.575.383.063-.064.191-.127.255-.191.32-.192.702-.32 1.277-.32.128 0 .255 0 .383.064.256.064.447.128.639.256.063.064.191.127.255.191.128.128.255.32.32.447.063.192.127.383.127.575v2.874zm4.023.255c-.32.255-.702.447-1.213.447-.192 0-.32 0-.511-.064-.766-.191-1.213-.702-1.405-1.469-.064-.319-.128-.638-.128-1.021 0-.383.064-.703.128-1.022.192-.766.702-1.34 1.405-1.469.128-.063.32-.063.51-.063.703 0 1.214.255 1.533.702.32.447.511 1.085.511 1.788-.064.958-.32 1.724-.83 2.171zm4.853-.32c-.383.448-1.022.703-1.724.703-.575 0-1.022-.064-1.341-.191-.128-.064-.192-.064-.255-.128v-6.322c0-.128.063-.32.191-.383.128-.064.256-.191.383-.191.064 0 .128 0 .192.063.064 0 .127.064.191.128.064.128.128.255.128.383v1.788c.064 0 .128-.064.192-.064.127-.064.255-.064.447-.127h.319c.128 0 .255 0 .383.063.383.064.702.32.958.639.32.447.51 1.022.51 1.724.065.83-.19 1.469-.574 1.916zm2.554.065c0 .319-.255.574-.51.574-.065 0-.128 0-.192-.064-.192-.063-.32-.255-.32-.51v-3.768c0-.32.256-.575.511-.575.256 0 .447.128.511.32 0 .063.064.127.064.191v3.832h-.064zm-.32-5.237c-.063 0-.127.064-.255.064-.063 0-.191 0-.255-.064a.556.556 0 01-.383-.51c0-.256.128-.447.383-.511.064 0 .128-.064.255-.064.064 0 .192 0 .256.064a.556.556 0 01.383.51c0 .256-.128.448-.383.511zm1.917 5.811h-.064c-.32 0-.511-.255-.511-.574v-6.003c0-.32.255-.51.51-.51.32 0 .512.255.512.574v6.002c.063.256-.128.511-.447.511zm5.236-.255c-.064.064-.192.064-.32.128-.319.127-.766.191-1.34.191-.511 0-.958-.128-1.342-.383-.127-.064-.255-.192-.319-.255-.383-.447-.638-1.086-.638-1.916 0-1.213.447-2.044 1.213-2.363.128-.064.255-.127.383-.127s.32-.064.447-.064c.32 0 .639.064.83.191.383.192.639.447.83.83.192.383.256.894.256 1.533l-3.002.447c.064.447.192.766.384 1.022.191.255.51.319.958.319.383 0 .702-.064.957-.128.064 0 .128-.064.192-.064s.128-.064.192-.064h.127c.128.064.256.192.256.32.127.191.064.319-.064.383z" fill="#1D1D1B"/><path d="M51.07 36.206c-.767 0-.958.894-.958 1.852 0 .894.191 1.788.958 1.788.766 0 .957-.83.957-1.788 0-.958-.127-1.852-.957-1.852zm13.666 0c-.639 0-1.086.511-1.086 1.724l2.043-.319c0-1.022-.319-1.405-.957-1.405zm-9.133-.064c-.32 0-.51.064-.639.128v3.448c.128.064.384.128.575.128.894 0 1.213-.767 1.213-1.916-.063-.958-.319-1.788-1.149-1.788z" fill="#1D1D1B"/><path d="M51.07 39.91c-.767 0-.958-.894-.958-1.852 0-.958.127-1.852.958-1.852.766 0 .957.894.957 1.852 0 .958-.127 1.852-.957 1.852z" fill="#1D1D1B"/></svg>